{"title":"If.Only.2004.DVDRip.XviD.AC3.2CH-JJH","uid":9132186,"size":734478336,"categoryP":"video","categoryS":"movies","magnet":"?xt=urn:btih:e5ad5567a2320d8e584e1a5c2ed6b2fe8d6130f5&amp;dn=If.Only.2004.DVDRip.XviD.AC3.2CH-JJH&amp;tr=udp%3A%2F%2Ftracker.openbittorrent.com%3A80&amp;tr=udp%3A%2F%2Fopen.demonii.com%3A1337&amp;tr=udp%3A%2F%2Ftracker.coppersurfer.tk%3A6969&amp;tr=udp%3A%2F%2Fexodus.desync.com%3A6969","seeders":1,"leechers":0,"uploader":"nitro1111","files":-1,"time":1383343948,"description":"Format                                   : AVI\nFormat/Info                              : Audio Video Interleave\nFile size                                : 700 MiB\nDuration                                 : 1h 35mn\nOverall bit rate                         : 1 023 Kbps\nWriting application                      : Nandub v1.0rc2\nWriting library                          : Nandub build 1852/release\n\nVideo\nID                                       : 0\nFormat                                   : MPEG-4 Visual\nFormat profile                           : Advanced Simple@L5\nFormat settings, BVOP                    : 1\nFormat settings, QPel                    : No\nFormat settings, GMC                     : No warppoints\nFormat settings, Matrix                  : Custom\nMuxing mode                              : Packed bitstream\nCodec ID                                 : XVID\nCodec ID/Hint                            : XviD\nDuration                                 : 1h 35mn\nBit rate                                 : 902 Kbps\nWidth                                    : 704 pixels\nHeight                                   : 384 pixels\nDisplay aspect ratio                     : 1.85:1\nFrame rate                               : 23.976 fps\nColor space                              : YUV\nChroma subsampling                       : 4:2:0\nBit depth                                : 8 bits\nScan type                                : Progressive\nCompression mode                         : Lossy\nBits/(Pixel*Frame)                       : 0.139\nStream size                              : 617 MiB (88%)\nWriting library                          : XviD 1.0.2 (UTC 2004-08-29)\n\nAudio\nID                                       : 1\nFormat                                   : AC-3\nFormat/Info                              : Audio Coding 3\nMode extension                           : CM (complete main)\nFormat settings, Endianness              : Big\nCodec ID                                 : 2000\nDuration                                 : 1h 35mn\nBit rate mode                            : Constant\nBit rate                                 : 112 Kbps\nChannel(s)                               : 2 channels\nChannel positions                        : Front: L R\nSampling rate                            : 48.0 KHz\nBit depth                                : 16 bits\nCompression mode                         : Lossy\nStream size                              : 76.7 MiB (11%)\nAlignment                                : Split accross interleaves\nInterleave, duration                     : 42 ms (1.00 video frame)\n\nThumbnails:  &lt;a href=&quot;\nhttp://img194.imageshack.us/img194/4827/ifonly2004dvdripxvidac3.png&quot; rel=&quot;nofollow&quot; target=&quot;_NEW&quot;&gt;\nhttp://img194.imageshack.us/img194/4827/ifonly2004dvdripxvidac3.png&lt;/a&gt;","torrent":{"xt":"urn:btih:e5ad5567a2320d8e584e1a5c2ed6b2fe8d6130f5","amp;dn":"If.Only.2004.DVDRip.XviD.AC3.2CH-JJH","amp;tr":["udp%3A%2F%2Ftracker.openbittorrent.com%3A80","udp%3A%2F%2Fopen.demonii.com%3A1337","udp%3A%2F%2Ftracker.coppersurfer.tk%3A6969","udp%3A%2F%2Fexodus.desync.com%3A6969"],"infoHash":"e5ad5567a2320d8e584e1a5c2ed6b2fe8d6130f5","infoHashBuffer":{"type":"Buffer","data":[229,173,85,103,162,50,13,142,88,78,26,92,46,214,178,254,141,97,48,245]},"announce":[],"urlList":[]}}